<?xml version="1.0" encoding="utf-8"?>
<!-- Generator: Adobe Illustrator 26.3.1, SVG Export Plug-In . SVG Version: 6.00 Build 0)  -->
<svg version="1.1" id="Layer_1" xmlns="http://www.w3.org/2000/svg" xmlns:xlink="http://www.w3.org/1999/xlink" x="0px" y="0px"
	 viewBox="0 0 1920 316.2" style="enable-background:new 0 0 1920 316.2;" xml:space="preserve">
<style type="text/css">
	.st0{opacity:0.2;}
	.st1{clip-path:url(#SVGID_00000084502360866732202580000003591201507044353195_);}
	.st2{opacity:0.9;}
	.st3{fill:none;stroke:url(#SVGID_00000117656186850139470050000013947798891877790120_);stroke-width:2;stroke-miterlimit:10;}
	.st4{fill:none;stroke:url(#SVGID_00000141428096644341993620000016312740511431250816_);stroke-width:2;stroke-miterlimit:10;}
	.st5{fill:none;stroke:url(#SVGID_00000137123961884291098310000006326411878630948262_);stroke-width:2;stroke-miterlimit:10;}
	.st6{fill:none;stroke:url(#SVGID_00000004509074691218450390000003304096550458427301_);stroke-width:2.01;stroke-miterlimit:10;}
	.st7{fill:none;stroke:url(#SVGID_00000106144165334585804760000012777008029543452049_);stroke-width:2.01;stroke-miterlimit:10;}
	.st8{fill:none;stroke:url(#SVGID_00000047031616000409074900000014456838434024747959_);stroke-width:2.01;stroke-miterlimit:10;}
	.st9{fill:none;stroke:url(#SVGID_00000056388812942888670320000003697869604644712855_);stroke-width:2.01;stroke-miterlimit:10;}
	.st10{fill:none;stroke:url(#SVGID_00000139987796128678027990000016146997729995574971_);stroke-width:2.02;stroke-miterlimit:10;}
	.st11{fill:none;stroke:url(#SVGID_00000170269697686199449930000012393616656176208046_);stroke-width:2.02;stroke-miterlimit:10;}
	.st12{fill:none;stroke:url(#SVGID_00000139986721324595388400000000815054700897672578_);stroke-width:2.02;stroke-miterlimit:10;}
	.st13{fill:none;stroke:url(#SVGID_00000175314471826652359160000017985044306613345413_);stroke-width:2.02;stroke-miterlimit:10;}
	.st14{fill:none;stroke:url(#SVGID_00000019663849187828156890000009737756503568321977_);stroke-width:2.03;stroke-miterlimit:10;}
	.st15{fill:none;stroke:url(#SVGID_00000050657865691282052870000011602758731979603351_);stroke-width:2.03;stroke-miterlimit:10;}
	.st16{fill:none;stroke:url(#SVGID_00000005950126095355764410000016844651122721895820_);stroke-width:2.03;stroke-miterlimit:10;}
	.st17{fill:none;stroke:url(#SVGID_00000165919398091401432290000000637158476044858502_);stroke-width:2.03;stroke-miterlimit:10;}
	.st18{fill:none;stroke:url(#SVGID_00000091734397573476101200000009221018960733815689_);stroke-width:2.03;stroke-miterlimit:10;}
	.st19{fill:none;stroke:url(#SVGID_00000127754087878450951450000016877384825611418278_);stroke-width:2.04;stroke-miterlimit:10;}
</style>
<g class="st0">
	<defs>
		<rect id="SVGID_1_" class="st0" width="1920" height="316.2"/>
	</defs>
	<clipPath id="SVGID_00000090988479608633079220000014819198504209993890_">
		<use xlink:href="#SVGID_1_"  style="overflow:visible;"/>
	</clipPath>
	<g style="clip-path:url(#SVGID_00000090988479608633079220000014819198504209993890_);">
		<g class="st2">
			
				<linearGradient id="SVGID_00000022542161206313039290000018209922343143364515_" gradientUnits="userSpaceOnUse" x1="189.6663" y1="370.4178" x2="2004.7363" y2="370.4178" gradientTransform="matrix(1.12 1.000000e-02 1.000000e-02 -0.77 -292.83 294.82)">
				<stop  offset="0" style="stop-color:#FE55AA"/>
				<stop  offset="1" style="stop-color:#410697"/>
			</linearGradient>
			
				<path style="fill:none;stroke:url(#SVGID_00000022542161206313039290000018209922343143364515_);stroke-width:2;stroke-miterlimit:10;" d="
				M-74.6-69.7C-19.1,14.4,56.6,94.9,165.4,151.3s254.7,85.6,386.8,61.5c88.7-16.2,168.6-49.3,240.8-87.2
				C911.6,63.2,1031.9-13,1191.7,22.1c61.4,13.5,111.1,41.2,149.8,77.1c37.5,34.7,69.4,74.5,128.8,92.4
				c68.8,20.9,152.7,22.8,223.9,7.5c107.1-23,191-83.1,232.4-153s43.2-148.3,20.9-222.3"/>
			
				<linearGradient id="SVGID_00000171692694403478156350000007069780914279458972_" gradientUnits="userSpaceOnUse" x1="186.7825" y1="352.8812" x2="2008.9524" y2="352.8812" gradientTransform="matrix(1.12 1.000000e-02 1.000000e-02 -0.77 -292.83 294.82)">
				<stop  offset="0" style="stop-color:#FE55AA"/>
				<stop  offset="1" style="stop-color:#410697"/>
			</linearGradient>
			
				<path style="fill:none;stroke:url(#SVGID_00000171692694403478156350000007069780914279458972_);stroke-width:2;stroke-miterlimit:10;" d="
				M-78-58.7c53.2,81.8,125.7,159.8,230.1,215.6c53.7,28.5,111.5,48.3,171.4,58.7c72.2,12.4,146,10.9,215.1-4.6
				c68.4-15.5,132-41.2,193.4-68.7c16-7.2,31.7-14.6,47-22.1c44.7-21.7,89.6-44.1,135.7-61.6c29.6-11.1,59.9-20.2,91.3-26.2
				c52.9-10,109.4-10.4,172.3,4.6c53.6,12.6,99.2,34.9,137.2,62.9c5.1,3.8,10,7.7,14.8,11.7c39,32.4,72.5,68.8,131.6,84
				c69.3,17.8,152.6,16.6,224.3,0.5c16-3.6,31.9-8,47.5-13.2c45.8-15.2,86.7-36.5,120.6-61.2c28.7-20.9,52.1-44.4,69.4-69.3
				c44.1-63.6,50.4-134.9,35.1-204.3"/>
			
				<linearGradient id="SVGID_00000106834196903937614500000016703824111921563779_" gradientUnits="userSpaceOnUse" x1="183.8898" y1="334.8755" x2="2014.6698" y2="334.8755" gradientTransform="matrix(1.12 1.000000e-02 1.000000e-02 -0.77 -292.83 294.82)">
				<stop  offset="0" style="stop-color:#FE55AA"/>
				<stop  offset="1" style="stop-color:#410697"/>
			</linearGradient>
			
				<path style="fill:none;stroke:url(#SVGID_00000106834196903937614500000016703824111921563779_);stroke-width:2;stroke-miterlimit:10;" d="
				M-81.4-47.7c50.9,79.5,120.2,155.1,220.2,210.3c49.8,27.5,109.5,49.4,172.3,59.1c71.4,10.6,144.2,6.4,213.8-12.5
				c66.7-18.1,129.3-46.1,192.4-73.1c16.2-7,32.1-14,47.7-21c45.6-20.3,91.2-40.4,137.5-54.8c29.7-9.4,60.2-16.1,91.1-20.2
				c52.6-6.8,108.7-4.1,171.4,11.8c49.4,12.4,96.4,33.1,138.9,61.3c5.3,3.5,10.3,7.2,15.3,10.9c40.6,30.1,75.7,63,134.4,75.5
				c69.9,14.8,152.4,10.5,224.7-6.6c16.4-3.8,32.3-8.4,47.8-13.4c45.9-15.1,87.6-35.2,122.6-58.1c29.4-19.2,53.7-40.5,72.1-62.9
				c46.8-57.3,57.6-121.5,49.3-186.3"/>
			
				<linearGradient id="SVGID_00000029023417309322677220000007116113272412754346_" gradientUnits="userSpaceOnUse" x1="180.9924" y1="316.2893" x2="2022.5625" y2="316.2893" gradientTransform="matrix(1.12 1.000000e-02 1.000000e-02 -0.77 -292.83 294.82)">
				<stop  offset="0" style="stop-color:#FE55AA"/>
				<stop  offset="1" style="stop-color:#410697"/>
			</linearGradient>
			
				<path style="fill:none;stroke:url(#SVGID_00000029023417309322677220000007116113272412754346_);stroke-width:2.01;stroke-miterlimit:10;" d="
				M-84.8-36.8c48.7,77.2,114.6,150.4,210.3,204.9c49.4,28.1,109.8,51.1,173.3,59.4c74.9,9.9,146.9,0.5,212.5-20.3
				c65-20.7,126.6-51,191.5-77.7c16.4-6.7,32.6-13.5,48.5-20c46.4-19,93-36.6,139.2-47.9c29.8-7.3,60.2-11.9,90.8-14
				c52.4-3.7,108,2.1,170.5,19.1c49.4,13.4,96.7,33.4,140.7,59.7c5.4,3.2,10.6,6.7,15.7,10c42.2,27.8,78.8,57.3,137.2,67
				c70.5,11.7,152.3,4.3,225.2-13.6c16.4-4,32.5-8.6,48.1-13.6c46-14.9,88.5-34,124.6-54.9c30.1-17.4,55.3-36.5,74.8-56.6
				c49.5-50.9,64.8-108,63.4-168.4"/>
			
				<linearGradient id="SVGID_00000109723691964236407170000007576892811883546778_" gradientUnits="userSpaceOnUse" x1="178.0995" y1="297.5466" x2="2032.7894" y2="297.5466" gradientTransform="matrix(1.12 1.000000e-02 1.000000e-02 -0.77 -292.83 294.82)">
				<stop  offset="0" style="stop-color:#FE55AA"/>
				<stop  offset="1" style="stop-color:#410697"/>
			</linearGradient>
			
				<path style="fill:none;stroke:url(#SVGID_00000109723691964236407170000007576892811883546778_);stroke-width:2.01;stroke-miterlimit:10;" d="
				M-88.1-25.8c46.4,74.9,109,145.9,200.4,199.6c49,28.8,110.1,52.6,174.3,59.8c76.2,8.6,147.3-4.7,211.2-28.1
				c63.3-23.4,123.8-56,190.5-82.2c16.6-6.5,33-13,49.2-19c47.3-17.6,94.7-32.8,140.9-41.1c29.9-5.3,60-7.7,90.6-8
				c52.2-0.5,107.2,8.5,169.6,26.4c52.1,15,99.4,35.4,142.4,58c5.6,2.9,10.9,6.1,16.1,9.2c43.8,25.5,82,51.5,140,58.5
				c71.1,8.6,152.2-1.9,225.6-20.7c16.5-4.2,32.6-8.9,48.5-13.9c43.5-13.8,85.9-31.1,126.6-51.7c30.8-15.7,56.9-32.5,77.6-50.2
				c52.1-44.6,72-94.6,77.7-150.4"/>
			
				<linearGradient id="SVGID_00000023276449928888568060000015672937764562859166_" gradientUnits="userSpaceOnUse" x1="175.2063" y1="278.6202" x2="2043.1364" y2="278.6202" gradientTransform="matrix(1.12 1.000000e-02 1.000000e-02 -0.77 -292.83 294.82)">
				<stop  offset="0" style="stop-color:#FE55AA"/>
				<stop  offset="1" style="stop-color:#410697"/>
			</linearGradient>
			
				<path style="fill:none;stroke:url(#SVGID_00000023276449928888568060000015672937764562859166_);stroke-width:2.01;stroke-miterlimit:10;" d="
				M-91.5-14.9C-47.4,57.7,11.9,126.5,99,179.4c48.6,29.5,110.4,54.1,175.2,60.2c77.6,7.3,147.7-9.8,209.9-35.9
				c61.7-26,121.1-61,189.6-86.7c16.8-6.3,33.4-12.4,49.8-18c48.2-16.2,96.4-29,142.6-34.3c30-3.4,60-3.5,90.3-1.9
				c52,2.7,106.6,14.7,168.7,33.7c51.7,15.8,99.5,35.6,144.2,56.4c5.7,2.6,11.2,5.6,16.6,8.3c45.5,23.1,85.2,45.6,142.8,50
				c71.7,5.5,152-8,226-27.7c16.5-4.4,32.8-9.1,48.8-14.1c43.8-13.8,86.7-30,128.6-48.7c31.4-14,58.4-28.5,80.3-43.8
				c54.6-38.3,79.2-81.1,91.8-132.4"/>
			
				<linearGradient id="SVGID_00000044167478289585884420000017691302291490037136_" gradientUnits="userSpaceOnUse" x1="172.3131" y1="259.5202" x2="2053.4731" y2="259.5202" gradientTransform="matrix(1.12 1.000000e-02 1.000000e-02 -0.77 -292.83 294.82)">
				<stop  offset="0" style="stop-color:#FE55AA"/>
				<stop  offset="1" style="stop-color:#410697"/>
			</linearGradient>
			
				<path style="fill:none;stroke:url(#SVGID_00000044167478289585884420000017691302291490037136_);stroke-width:2.01;stroke-miterlimit:10;" d="
				M-94.9-3.9C-53.1,66.4,2.8,133,85.7,185c48.2,30.2,110.7,55.6,176.2,60.6c79,6,148.2-15,208.5-43.8c60-28.6,118.3-66,188.6-91.2
				c17-6.1,33.9-11.9,50.5-17c49-14.9,98.2-25.2,144.4-27.4c30-1.4,60,0.7,90,4.2c51.8,6,105.9,21,167.9,41
				c51.2,16.5,99.5,35.8,146,54.8c5.8,2.4,11.4,5.1,17,7.5c47.2,20.8,88.4,39.7,145.6,41.5c72.4,2.3,151.9-14.2,226.4-34.8
				c16.6-4.5,32.9-9.4,49.1-14.3c46.4-14.4,91-30.3,130.6-45.5c32.1-12.3,59.9-24.5,83-37.5c57.1-32,86.3-67.7,106-114.5"/>
			
				<linearGradient id="SVGID_00000039116479702130255380000012076033577105977266_" gradientUnits="userSpaceOnUse" x1="169.4238" y1="240.2291" x2="2063.7937" y2="240.2291" gradientTransform="matrix(1.12 1.000000e-02 1.000000e-02 -0.77 -292.83 294.82)">
				<stop  offset="0" style="stop-color:#FE55AA"/>
				<stop  offset="1" style="stop-color:#410697"/>
			</linearGradient>
			
				<path style="fill:none;stroke:url(#SVGID_00000039116479702130255380000012076033577105977266_);stroke-width:2.02;stroke-miterlimit:10;" d="
				M-98.3,7.1c39.5,68,92,132.5,170.6,183.6c47.8,31,110.9,57,177.2,61c80.3,4.7,148.6-20.2,207.2-51.6
				c58.3-31.3,115.6-71,187.6-95.7c17.2-5.9,34.3-11.3,51.3-16c49.9-13.5,99.9-21.3,146.1-20.6c30.2,0.5,60.1,5,89.8,10.2
				c51.6,9.2,105.2,27.3,167,48.3c50.7,17.3,99.5,36,147.7,53.1c6,2.1,11.7,4.5,17.4,6.7c48.8,18.4,91.8,36.1,148.4,33
				c72.9-4,151.7-20.4,226.9-41.8c16.6-4.7,33.1-9.6,49.4-14.6c46.6-14.2,91.9-29.1,132.6-42.4c32.8-10.7,61.4-20.6,85.8-31.1
				c59.5-25.8,93.5-54.2,120.2-96.5"/>
			
				<linearGradient id="SVGID_00000065757913929551457800000009760378099606243747_" gradientUnits="userSpaceOnUse" x1="166.5296" y1="220.9415" x2="2074.0996" y2="220.9415" gradientTransform="matrix(1.12 1.000000e-02 1.000000e-02 -0.77 -292.83 294.82)">
				<stop  offset="0" style="stop-color:#FE55AA"/>
				<stop  offset="1" style="stop-color:#410697"/>
			</linearGradient>
			
				<path style="fill:none;stroke:url(#SVGID_00000065757913929551457800000009760378099606243747_);stroke-width:2.02;stroke-miterlimit:10;" d="
				M-101.7,18c37.3,65.7,86.3,128.2,160.7,178.2c47.4,31.8,111.2,58.5,178.2,61.3c81.7,3.4,149-25.4,205.9-59.4
				c56.6-33.9,112.8-76.1,186.7-100.3c17.4-5.7,34.8-10.8,52-15c50.8-12.2,101.7-17.5,147.8-13.7c30.3,2.5,60.1,9.2,89.6,16.3
				c51.3,12.5,104.4,33.5,166.1,55.6c50.3,18,99.5,36.3,149.5,51.5c6.1,1.9,12,4,17.9,5.8c50.5,15.9,94.9,27.8,151.2,24.6
				c73.7-4.3,151.6-26.5,227.3-48.9c16.7-4.9,33.2-9.9,49.8-14.8c46.7-14,92.7-27.9,134.6-39.2c33.4-9,62.9-16.7,88.5-24.8
				c61.8-19.6,100.7-40.8,134.4-78.6"/>
			
				<linearGradient id="SVGID_00000119829561880486235080000002190301208169309621_" gradientUnits="userSpaceOnUse" x1="163.6632" y1="201.5393" x2="2084.3931" y2="201.5393" gradientTransform="matrix(1.12 1.000000e-02 1.000000e-02 -0.77 -292.83 294.82)">
				<stop  offset="0" style="stop-color:#FE55AA"/>
				<stop  offset="1" style="stop-color:#410697"/>
			</linearGradient>
			
				<path style="fill:none;stroke:url(#SVGID_00000119829561880486235080000002190301208169309621_);stroke-width:2.02;stroke-miterlimit:10;" d="
				M-105,29c35,63.4,80.5,123.9,150.8,172.9c46.9,32.7,111.5,60,179.1,61.7c83,2.1,149.5-30.6,204.6-67.2
				c54.9-36.6,110-81.1,185.7-104.8c17.6-5.5,35.2-10.2,52.7-14c51.7-10.8,103.4-13.6,149.5-6.9c30.4,4.5,60.2,13.4,89.3,22.4
				c51.2,15.7,103.8,39.7,165.2,62.9c49.8,18.8,99.5,36.6,151.2,49.9c6.2,1.6,12.3,3.4,18.3,5c52.2,13.5,98.1,21.8,154,16.1
				c74.4-7.6,151.4-32.7,227.7-56c16.7-5,33.4-10.1,50.1-15c46.8-13.9,93.5-26.8,136.6-36.1c34-7.3,64.4-12.8,91.2-18.4
				c64.2-13.5,107.9-27.4,148.6-60.6"/>
			
				<linearGradient id="SVGID_00000000187839057349078790000016001770596780766132_" gradientUnits="userSpaceOnUse" x1="160.7429" y1="185.5223" x2="2094.6228" y2="185.5223" gradientTransform="matrix(1.12 1.000000e-02 1.000000e-02 -0.77 -292.83 294.82)">
				<stop  offset="0" style="stop-color:#FE55AA"/>
				<stop  offset="1" style="stop-color:#410697"/>
			</linearGradient>
			
				<path style="fill:none;stroke:url(#SVGID_00000000187839057349078790000016001770596780766132_);stroke-width:2.02;stroke-miterlimit:10;" d="
				M-108.4,40c32.7,61,74.7,119.7,140.9,167.5C79,241,144.3,269,212.6,269.6c84.4,0.8,149.9-35.8,203.3-75
				c53.2-39.2,107.3-86.2,184.7-109.3c17.5-5.3,35.4-9.6,53.4-13c52.5-9.5,105.1-9.8,151.3,0c30.5,6.4,60.2,17.7,89.1,28.5
				c51,19,103.1,46,164.3,70.2c49.3,19.5,99.5,37,153,48.2c6.4,1.3,12.6,2.9,18.7,4.1c53.9,11.1,101.4,15.8,156.9,7.6
				c75-11,151.3-38.9,228.2-63c16.7-5.2,33.5-10.4,50.4-15.2c47-13.7,94.3-25.7,138.6-32.9c34.7-5.7,65.8-8.9,94-12
				c66.6-7.5,115.1-13.9,162.8-42.6"/>
			
				<linearGradient id="SVGID_00000103943261775792736440000014262093472397145236_" gradientUnits="userSpaceOnUse" x1="157.8436" y1="174.4057" x2="2104.8635" y2="174.4057" gradientTransform="matrix(1.12 1.000000e-02 1.000000e-02 -0.77 -292.83 294.82)">
				<stop  offset="0" style="stop-color:#FE55AA"/>
				<stop  offset="1" style="stop-color:#410697"/>
			</linearGradient>
			
				<path style="fill:none;stroke:url(#SVGID_00000103943261775792736440000014262093472397145236_);stroke-width:2.03;stroke-miterlimit:10;" d="
				M-111.8,50.9c30.4,58.7,68.9,115.6,131,162.2c45.9,34.4,112,62.9,181.1,62.4c85.7-0.6,150.3-41,202-82.9
				c51.5-41.8,104.5-91.2,183.7-113.8c17.8-5.1,35.8-9.1,54.1-11.9c53.4-8.1,106.9-5.9,153,6.8c30.6,8.4,60.2,21.9,88.8,34.5
				c50.8,22.4,102.4,52.2,163.5,77.5c48.9,20.2,99.5,37.3,154.8,46.6c6.5,1.1,12.9,2.3,19.2,3.3c55.6,8.6,104.6,9.7,159.7-0.9
				c75.7-14.5,151.2-45,228.6-70.1c16.8-5.4,33.7-10.6,50.7-15.5c47.1-13.5,95.2-24.5,140.6-29.8c35.3-4.1,67.3-5,96.7-5.7
				c69-1.5,122.3-0.5,177-24.7"/>
			
				<linearGradient id="SVGID_00000166673870129461467080000013007146294496033938_" gradientUnits="userSpaceOnUse" x1="154.9581" y1="170.2801" x2="2115.1079" y2="170.2801" gradientTransform="matrix(1.12 1.000000e-02 1.000000e-02 -0.77 -292.83 294.82)">
				<stop  offset="0" style="stop-color:#FE55AA"/>
				<stop  offset="1" style="stop-color:#410697"/>
			</linearGradient>
			
				<path style="fill:none;stroke:url(#SVGID_00000166673870129461467080000013007146294496033938_);stroke-width:2.03;stroke-miterlimit:10;" d="
				M-115.2,61.9c28.2,56.4,63,111.5,121.1,156.8c45.4,35.4,112.3,64.4,182,62.8c87.1-1.9,150.7-46.2,200.7-90.7
				c49.8-44.5,101.8-96.3,182.8-118.3c18-4.9,36.3-8.6,54.8-10.9c54.3-6.8,108.6-2,154.7,13.6c30.7,10.4,60.3,26.2,88.6,40.6
				c50.5,25.7,101.7,58.4,162.6,84.8c48.4,21,99.5,37.7,156.5,45c6.7,0.8,13.2,1.8,19.6,2.5c57.3,6.1,107.8,3.6,162.5-9.4
				c76.3-18,151-51.2,229-77.1c16.8-5.6,33.8-10.9,51-15.7c47.2-13.4,96-23.4,142.6-26.6c36-2.5,68.8-1.2,99.4,0.7
				c71.4,4.4,129.4,13,191.2-6.7"/>
			
				<linearGradient id="SVGID_00000008856277596571402980000007137834772742502566_" gradientUnits="userSpaceOnUse" x1="152.0634" y1="168.7339" x2="2125.3535" y2="168.7339" gradientTransform="matrix(1.12 1.000000e-02 1.000000e-02 -0.77 -292.83 294.82)">
				<stop  offset="0" style="stop-color:#FE55AA"/>
				<stop  offset="1" style="stop-color:#410697"/>
			</linearGradient>
			
				<path style="fill:none;stroke:url(#SVGID_00000008856277596571402980000007137834772742502566_);stroke-width:2.03;stroke-miterlimit:10;" d="
				M-118.5,72.9c25.9,54.1,57,107.5,111.2,151.5c44.8,36.4,112.6,65.7,183,63.2c88.4-3.5,151.2-51.4,199.4-98.5S474,87.6,556.9,66.2
				c18.2-4.7,36.8-8,55.5-9.9c55.2-5.4,110.3,1.8,156.4,20.5c30.8,12.4,60.3,30.5,88.3,46.7c50.3,29,101.1,64.5,161.7,92.1
				c48,21.6,99.5,38.2,158.3,43.3c6.8,0.6,13.5,1.2,20,1.6c58.9,3.6,110.9-2.6,165.3-17.9c76.8-21.6,150.9-57.4,229.5-84.2
				c16.9-5.7,34-11.1,51.4-15.9c47.4-13.2,96.8-22.4,144.6-23.5c36.7-0.9,70.3,2.6,102.2,7c73.8,10.3,136.6,26.4,205.4,11.3"/>
			
				<linearGradient id="SVGID_00000148642076877097913300000014170898936961575820_" gradientUnits="userSpaceOnUse" x1="149.1684" y1="167.3976" x2="2135.6084" y2="167.3976" gradientTransform="matrix(1.12 1.000000e-02 1.000000e-02 -0.77 -292.83 294.82)">
				<stop  offset="0" style="stop-color:#FE55AA"/>
				<stop  offset="1" style="stop-color:#410697"/>
			</linearGradient>
			
				<path style="fill:none;stroke:url(#SVGID_00000148642076877097913300000014170898936961575820_);stroke-width:2.03;stroke-miterlimit:10;" d="
				M-121.9,83.8c23.6,51.8,51,103.5,101.2,146.1c44.1,37.5,112.9,67.2,184,63.6c89.8-4.8,151.6-56.5,198.1-106.3
				S457.6,80.7,542.3,59.9c18.4-4.5,37.2-7.5,56.2-8.9c56-4,112,5.8,158.2,27.3c30.9,14.4,60.3,34.8,88.1,52.7
				c50,32.4,100.4,70.7,160.8,99.3c47.6,22.4,99.5,38.6,160.1,41.7c6.9,0.4,13.8,0.7,20.5,0.8c60.6,1,114.1-8.8,168.1-26.3
				c77.4-25.2,150.7-63.5,229.9-91.2c16.9-5.9,34.1-11.4,51.7-16.1c47.5-13,97.7-21.3,146.6-20.3c37.3,0.7,71.9,6.4,104.9,13.4
				c76.3,16.2,143.8,39.9,219.6,29.2"/>
			
				<linearGradient id="SVGID_00000088835664867587190690000011364681362993768338_" gradientUnits="userSpaceOnUse" x1="146.2732" y1="166.2886" x2="2145.873" y2="166.2886" gradientTransform="matrix(1.12 1.000000e-02 1.000000e-02 -0.77 -292.83 294.82)">
				<stop  offset="0" style="stop-color:#FE55AA"/>
				<stop  offset="1" style="stop-color:#410697"/>
			</linearGradient>
			
				<path style="fill:none;stroke:url(#SVGID_00000088835664867587190690000011364681362993768338_);stroke-width:2.03;stroke-miterlimit:10;" d="
				M-125.3,94.8c21.3,49.5,45,99.5,91.3,140.8c43.4,38.7,113.1,68.6,185,63.9c91.1-6.1,152-61.7,196.8-114.1S441.1,73.6,527.7,53.5
				c18.7-4.4,37.7-7,56.9-7.9c56.9-2.7,113.7,9.7,159.9,34.2c31,16.5,60.2,39.1,87.8,58.8c49.7,35.8,99.7,77,159.9,106.6
				c47.1,23.1,99.5,39.1,161.8,40.1c7.1,0.1,14,0.1,20.9,0c62.3-1.5,117.2-15,170.9-34.8c77.9-28.8,150.6-69.7,230.3-98.3
				c17-6.1,34.3-11.6,52-16.4c47.6-12.8,98.5-20.2,148.6-17.2c38,2.3,73.4,10.2,107.7,19.8c78.9,22.1,151,53.3,233.8,47.2"/>
			
				<linearGradient id="SVGID_00000164512046170544607650000004839544912164699817_" gradientUnits="userSpaceOnUse" x1="143.373" y1="165.3359" x2="2156.1431" y2="165.3359" gradientTransform="matrix(1.12 1.000000e-02 1.000000e-02 -0.77 -292.83 294.82)">
				<stop  offset="0" style="stop-color:#FE55AA"/>
				<stop  offset="1" style="stop-color:#410697"/>
			</linearGradient>
			
				<path style="fill:none;stroke:url(#SVGID_00000164512046170544607650000004839544912164699817_);stroke-width:2.04;stroke-miterlimit:10;" d="
				M-128.7,105.8c19,47.2,38.8,95.6,81.4,135.5s113.4,70.1,185.9,64.3c92.5-7.4,152.4-66.9,195.5-122S424.8,66.7,513.1,47.2
				c75.5-16.7,157.5-2.5,219.2,34.1c31.1,18.5,60.3,43.3,87.6,64.9c87.8,69.4,176.2,155,322.6,152.4
				c189.5-3.4,311.8-122,478.1-166.1c47.8-12.7,99.4-19.2,150.6-14.1c127.6,12.7,229.5,93.6,358.3,91.3"/>
		</g>
	</g>
</g>
</svg>
